<svg width="100" height="100" viewBox="0 0 100 100" fill="none" xmlns="http://www.w3.org/2000/svg">
<path d="M85.4165 10.4167H14.5832L20.8332 81.25L49.9999 89.5834L79.1665 81.25L85.4165 10.4167Z" fill="#0277BD"/>
<path d="M49.9999 16.6667V83.125L73.3332 76.4583L78.5415 16.6667H49.9999Z" fill="#039BE5"/>
<path d="M68.9582 27.0833H49.9999V35.4166H60.2082L59.5832 43.75H49.9999V52.0833H59.1665L58.5415 61.4583L49.9999 64.375V73.125L66.4582 67.7083L67.9165 43.75L68.9582 27.0833Z" fill="white"/>
<path d="M49.9999 27.0833V35.4166H31.4582L30.8332 27.0833H49.9999ZM40.4166 43.75L40.8332 52.0833H49.9999V43.75H40.4166ZM41.2499 56.25H32.9166L33.5416 67.7083L49.9999 73.125V64.375L41.4582 61.4583L41.2499 56.25Z" fill="#EEEEEE"/>
</svg>
