<svg width="100" height="100" viewBox="0 0 100 100" fill="none" xmlns="http://www.w3.org/2000/svg">
<path d="M85.4166 10.4167H14.5832L20.8332 81.25L49.9999 89.5833L79.1666 81.25L85.4166 10.4167Z" fill="#E65100"/>
<path d="M49.9999 16.6667V83.125L73.3332 76.4583L78.5415 16.6667H49.9999Z" fill="#FF6D00"/>
<path d="M49.9999 52.0833V43.75H67.9165L66.4582 67.7083L49.9999 73.125V64.375L58.5415 61.4583L59.1665 52.0833H49.9999ZM68.5415 35.4166L69.1665 27.0833H49.9999V35.4166H68.5415Z" fill="white"/>
<path d="M49.9999 64.375V73.125L33.5415 67.7083L32.7082 56.25H41.0415L41.4582 61.4583L49.9999 64.375ZM39.7915 35.4166H49.9999V27.0833H31.0415L32.4999 52.0833H49.9999V43.75H40.4165L39.7915 35.4166Z" fill="#EEEEEE"/>
</svg>
