<?xml version="1.0" encoding="UTF-8"?>
<svg xmlns="http://www.w3.org/2000/svg" xmlns:xlink="http://www.w3.org/1999/xlink" width="52pt" height="52pt" viewBox="0 0 52 52" version="1.1">
<g id="surface45067866">
<path style=" stroke:none;fill-rule:nonzero;fill:rgb(0%,45.490196%,60.392159%);fill-opacity:1;" d="M 26.0625 0 C 11.765625 0 0.125 11.640625 0.125 25.9375 C 0.125 40.234375 11.765625 51.875 26.0625 51.875 C 40.359375 51.875 52 40.234375 52 25.9375 C 52 11.640625 40.359375 0 26.0625 0 Z M 26.0625 1.1875 C 39.703125 1.1875 50.8125 12.296875 50.8125 25.9375 C 50.8125 39.578125 39.703125 50.6875 26.0625 50.6875 C 12.421875 50.6875 1.3125 39.578125 1.3125 25.9375 C 1.3125 12.296875 12.421875 1.1875 26.0625 1.1875 Z M 26.0625 3.6875 C 18.289062 3.6875 11.476562 7.648438 7.5 13.6875 C 8.023438 13.703125 8.515625 13.75 8.9375 13.75 C 11.265625 13.75 14.875 13.4375 14.875 13.4375 C 16.070312 13.367188 16.195312 15.171875 15 15.3125 C 15 15.3125 13.773438 15.429688 12.4375 15.5 L 20.5625 39.5625 L 25.4375 25 L 21.9375 15.5 C 20.742188 15.429688 19.625 15.3125 19.625 15.3125 C 18.421875 15.242188 18.554688 13.367188 19.75 13.4375 C 19.75 13.4375 23.4375 13.75 25.625 13.75 C 27.953125 13.75 31.5625 13.4375 31.5625 13.4375 C 32.765625 13.367188 32.882812 15.171875 31.6875 15.3125 C 31.6875 15.3125 30.460938 15.429688 29.125 15.5 L 37.1875 39.375 L 39.375 32 C 40.5 29.109375 41.0625 26.71875 41.0625 24.8125 C 41.0625 22.0625 40.101562 20.164062 39.25 18.6875 C 38.125 16.851562 37.0625 15.273438 37.0625 13.4375 C 37.0625 11.398438 38.625 9.5 40.8125 9.5 C 40.914062 9.5 41.023438 9.492188 41.125 9.5 C 37.164062 5.875 31.851562 3.6875 26.0625 3.6875 Z M 45.5625 15.25 C 45.664062 15.960938 45.75 16.742188 45.75 17.5625 C 45.75 19.820312 45.328125 22.328125 44.0625 25.5 L 37.25 45.125 C 43.859375 41.265625 48.3125 34.140625 48.3125 25.9375 C 48.3125 22.070312 47.296875 18.414062 45.5625 15.25 Z M 5.75 16.875 C 4.515625 19.640625 3.8125 22.710938 3.8125 25.9375 C 3.8125 34.742188 8.953125 42.328125 16.375 45.9375 Z M 26.4375 27.875 L 19.8125 47.25 C 21.804688 47.835938 23.875 48.1875 26.0625 48.1875 C 28.648438 48.1875 31.125 47.6875 33.4375 46.875 C 33.382812 46.78125 33.359375 46.734375 33.3125 46.625 Z M 26.4375 27.875 "/>
</g>
</svg>
