<svg width="100" height="100" viewBox="0 0 100 100" fill="none" xmlns="http://www.w3.org/2000/svg">
<path d="M16.6665 10.4167H87.4999L79.1665 81.25L52.0832 89.5834L22.9165 81.25L16.6665 10.4167Z" fill="#E7A42B"/>
<path d="M80.479 16.6667L73.4374 76.4792L52.0832 83.0417V16.6667H80.479Z" fill="#F2BF22"/>
<path d="M52.0832 43.75L54.1666 47.9167L52.0832 52.0833H32.8957L34.6666 25H52.0832L54.1666 29.1667L52.0832 33.3333H43.8124L43.1249 43.75H52.0832Z" fill="#FAF9F8"/>
<path d="M51.8749 67.8542L52.0832 67.7917L54.1665 72.9167L52.0832 76.5L51.9582 76.5417L34.604 71.5834L33.4374 58.3334H41.8124L42.3957 65.1459L51.8749 67.8542Z" fill="#EBEBEB"/>
<path d="M70.979 43.75L67.7082 71.7083L52.0832 76.5V67.7917L60.0624 65.3333L61.604 52.0833H52.0832V43.75H70.979Z" fill="white"/>
<path d="M72.7499 37.5H64.4374L63.8957 33.3333H52.0832V25H71.104L71.4582 27.625L72.7499 37.5Z" fill="white"/>
</svg>
