<svg width="100" height="100" viewBox="0 0 100 100" fill="none" xmlns="http://www.w3.org/2000/svg">
<path d="M83.0561 54.075C79.852 54.0917 77.077 54.8604 74.752 56.0083C73.902 54.3104 73.0395 52.8167 72.8957 51.7063C72.727 50.4104 72.5311 49.6354 72.7353 48.0917C72.9395 46.5479 73.8332 44.3604 73.8207 44.1958C73.8082 44.0313 73.6207 43.2458 71.7728 43.2313C69.9249 43.2188 68.3436 43.5875 68.1582 44.075C67.9728 44.5625 67.6166 45.6604 67.3957 46.8063C67.0728 48.4813 63.7061 54.4583 61.7957 57.5833C61.1707 56.3625 60.6395 55.2875 60.5291 54.4375C60.3603 53.1417 60.1645 52.3667 60.3686 50.8229C60.5728 49.2792 61.4666 47.0917 61.4541 46.9271C61.4416 46.7625 61.2541 45.9771 59.4061 45.9625C57.5582 45.95 55.977 46.3188 55.7916 46.8063C55.6061 47.2938 55.4061 48.4333 55.0291 49.5375C54.6499 50.6396 50.177 60.6083 49.0041 63.1938C48.4061 64.5104 47.8874 65.5688 47.5207 66.2896C47.5186 66.2875 47.5186 66.2854 47.5186 66.2854C47.5186 66.2854 47.4957 66.3333 47.4582 66.4146C47.1436 67.0292 46.9582 67.3688 46.9582 67.3688C46.9582 67.3688 46.9603 67.3729 46.9645 67.3813C46.7145 67.8333 46.4478 68.2521 46.3166 68.2521C46.2249 68.2521 46.0395 67.05 46.3561 65.4C47.0228 61.9417 48.6207 56.55 48.6061 56.3625C48.5978 56.2667 48.9041 55.3271 47.5624 54.8354C46.2582 54.3583 45.7936 55.1542 45.6749 55.1563C45.5603 55.1583 45.4749 55.4375 45.4749 55.4375C45.4749 55.4375 46.927 49.3729 42.7041 49.3729C40.0624 49.3729 36.4041 52.2625 34.602 54.8813C33.4645 55.5021 31.0291 56.8313 28.4478 58.25C27.4561 58.7958 26.4436 59.3521 25.4832 59.8813C25.4186 59.8083 25.352 59.7375 25.2853 59.6646C20.1624 54.2 10.6957 50.3354 11.0957 42.9875C11.2416 40.3167 12.1707 33.2833 29.2895 24.7542C43.3124 17.7667 54.5395 19.6896 56.4791 23.95C59.2499 30.0396 50.4791 41.3542 35.9166 42.9875C30.3686 43.6104 27.4457 41.4583 26.7186 40.6583C25.9541 39.8146 25.8395 39.7771 25.5541 39.9354C25.0895 40.1938 25.3832 40.9375 25.5541 41.3813C25.9895 42.5125 27.7728 44.5188 30.8145 45.5188C33.4916 46.3979 40.0061 46.8792 47.8832 43.8313C56.7082 40.4188 63.5978 30.9229 61.5728 22.9875C59.5145 14.9167 46.1311 12.2625 33.4645 16.7625C25.9166 19.4417 17.7561 23.6458 11.8874 29.1333C4.91031 35.6583 3.79781 41.3396 4.25615 43.7125C5.88531 52.1458 17.5082 57.6375 22.1624 61.7063C21.9332 61.8333 21.7166 61.9521 21.5207 62.0604C19.1874 63.2146 10.327 67.8521 8.11031 72.75C5.59573 78.3063 8.51031 82.2938 10.4395 82.8313C16.4166 84.4938 22.5499 81.5021 25.8478 76.5854C29.1436 71.6708 28.7416 65.2688 27.2291 62.3479C27.2103 62.3125 27.1895 62.2771 27.1707 62.2396C27.7728 61.8833 28.3874 61.5208 28.9957 61.1625C30.1832 60.4646 31.3499 59.8146 32.3603 59.2646C31.7936 60.8146 31.3791 62.675 31.1645 65.3604C30.9103 68.5146 32.2041 72.5917 33.8957 74.1958C34.6416 74.9021 35.5374 74.9188 36.1041 74.9188C38.0728 74.9188 38.9707 73.2813 39.9603 71.3438C41.1728 68.9688 42.2499 66.2021 42.2499 66.2021C42.2499 66.2021 40.8999 73.6729 44.5791 73.6729C45.9207 73.6729 47.2686 71.9333 47.8707 71.0479C47.8728 71.0583 47.8728 71.0625 47.8728 71.0625C47.8728 71.0625 47.9082 71.0042 47.977 70.8896C48.1166 70.6771 48.1957 70.5417 48.1957 70.5417C48.1957 70.5417 48.1978 70.5271 48.202 70.5021C48.7416 69.5667 49.9374 67.4333 51.7291 63.9146C54.0457 59.3688 56.2666 53.6729 56.2666 53.6729C56.2666 53.6729 56.4728 55.0646 57.1499 57.3688C57.5478 58.7229 58.3936 60.2208 59.0624 61.6583C58.5249 62.4042 58.1957 62.8313 58.1957 62.8313C58.1957 62.8313 58.1978 62.8396 58.2041 62.8542C57.7749 63.425 57.2936 64.0396 56.7895 64.6396C54.9603 66.8167 52.7832 69.3042 52.4916 70.0208C52.1478 70.8667 52.2291 71.4875 52.8936 71.9896C53.3791 72.3542 54.2416 72.4125 55.1436 72.3521C56.7874 72.2417 57.9416 71.8333 58.5124 71.5854C59.402 71.2708 60.4374 70.7771 61.4082 70.0625C63.202 68.7438 64.2832 66.8583 64.1791 64.3583C64.1207 62.9813 63.6832 61.6167 63.127 60.3292C63.2895 60.0958 63.452 59.8583 63.6166 59.6208C66.4436 55.4875 68.6374 50.9458 68.6374 50.9458C68.6374 50.9458 68.8436 52.3375 69.5207 54.6417C69.8624 55.8063 70.5395 57.0792 71.1478 58.325C68.4895 60.4854 66.8416 62.9958 66.2686 64.6417C65.2103 67.6875 66.0395 69.0667 67.5936 69.3813C68.2978 69.5229 69.2936 69.2 70.0416 68.8833C70.9728 68.575 72.0916 68.0604 73.1374 67.2917C74.9311 65.9729 76.6561 64.1271 76.552 61.6292C76.5041 60.4917 76.1957 59.3625 75.777 58.2792C78.0311 57.3396 80.9478 56.8188 84.6645 57.2521C92.6374 58.1833 94.1999 63.1604 93.902 65.2438C93.602 67.3271 91.9311 68.4729 91.3707 68.8188C90.8124 69.1646 90.6416 69.2854 90.6874 69.5417C90.7561 69.9146 91.0145 69.9021 91.4916 69.8208C92.1478 69.7104 95.677 68.1271 95.8291 64.2813C96.0186 59.3938 91.3416 54.0313 83.0561 54.075ZM21.6041 74.7917C18.9624 77.6729 15.2749 78.7604 13.6916 77.8438C11.9832 76.8542 12.6603 72.6125 15.8999 69.5542C17.8749 67.6917 20.4249 65.975 22.1166 64.9188C22.502 64.6875 23.0666 64.3479 23.7541 63.9354C23.8686 63.8708 23.9332 63.8354 23.9332 63.8354L23.9311 63.8313C24.0645 63.7521 24.1999 63.6708 24.3395 63.5854C25.5207 67.9375 24.377 71.7688 21.6041 74.7917ZM40.8436 61.7146C39.9249 63.9563 37.9999 69.6938 36.827 69.3854C35.8207 69.1208 35.2082 64.7604 36.627 60.4688C37.3395 58.3083 38.8645 55.7271 39.7603 54.725C41.202 53.1125 42.7895 52.5854 43.1749 53.2396C43.6645 54.0729 41.4207 60.3083 40.8436 61.7146ZM56.7374 69.2979C56.3478 69.5021 55.9895 69.6292 55.8249 69.5313C55.702 69.4583 55.9853 69.1896 55.9853 69.1896C55.9853 69.1896 57.9728 67.05 58.7561 66.0771C59.2124 65.5104 59.7395 64.8375 60.3145 64.0875C60.3186 64.1625 60.3207 64.2375 60.3207 64.3104C60.3166 66.8729 57.8416 68.6021 56.7374 69.2979ZM68.9811 66.5063C68.6895 66.3 68.7395 65.6313 69.6957 63.5458C70.0707 62.7271 70.9291 61.35 72.4166 60.0333C72.5895 60.575 72.6936 61.0938 72.6916 61.5771C72.6728 64.8021 70.3728 66.0063 68.9811 66.5063Z" fill="#F06292"/>
</svg>
